<svg xmlns="http://www.w3.org/2000/svg" viewBox="0 0 29 29" width="29" height="29">
	<style>
		tspan { white-space:pre }
		.shp0 { fill: #6997ff } 
		.shp1 { fill: #577bcb } 
		.shp2 { fill: #ffffff } 
		.shp3 { fill: #3a3a3a } 
	</style>
	<g id="Layer" style="opacity: 0.302">
		<path id="Layer" class="shp0" d="M0.08 16.8L2.87 3.19C3.32 1.03 5.43 -0.36 7.6 0.08L21.2 2.87C23.37 3.32 24.76 5.43 24.32 7.6L21.52 21.2C21.08 23.37 18.97 24.76 16.8 24.32L3.2 21.52C1.03 21.08 -0.36 18.97 0.08 16.8Z" />
	</g>
	<g id="Layer" style="opacity: 0.302">
		<path id="Layer" class="shp0" d="M6.41 6.87L19.94 3.75C22.09 3.25 24.24 4.59 24.73 6.74L27.86 20.27C28.36 22.42 27.02 24.57 24.86 25.07L11.34 28.19C9.18 28.69 7.04 27.35 6.54 25.19L3.42 11.67C2.92 9.51 4.26 7.37 6.41 6.87Z" />
	</g>
	<path id="Layer" class="shp1" d="M6.95 3.28L20.84 3.28C23.05 3.28 24.84 5.07 24.84 7.28L24.84 21.17C24.84 23.38 23.05 25.17 20.84 25.17L6.95 25.17C4.74 25.17 2.95 23.38 2.95 21.17L2.95 7.28C2.95 5.07 4.74 3.28 6.95 3.28Z" />
	<path id="Layer" class="shp2" d="M14.17 20.52C11.82 20.53 9.64 19.27 8.46 17.23C7.29 15.2 7.29 12.68 8.47 10.65C9.66 8.61 11.84 7.37 14.19 7.38C16.54 7.39 18.71 8.66 19.87 10.71C19.95 10.86 20 11.02 20.02 11.19C20.04 11.35 20.02 11.52 19.98 11.68C19.93 11.84 19.85 11.99 19.75 12.13C19.64 12.26 19.52 12.37 19.37 12.45C19.35 12.46 19.33 12.47 19.3 12.49C19.28 12.5 19.26 12.51 19.23 12.52C19.21 12.52 19.19 12.53 19.16 12.54C19.14 12.55 19.11 12.55 19.09 12.56L19.09 12.56C18.96 12.6 18.81 12.62 18.67 12.61C18.53 12.6 18.39 12.57 18.26 12.52C18.13 12.47 18.01 12.4 17.91 12.3C17.8 12.21 17.71 12.1 17.64 11.98C16.84 10.58 15.27 9.79 13.67 9.99C12.06 10.19 10.74 11.34 10.31 12.9C9.88 14.46 10.43 16.13 11.71 17.12C12.98 18.11 14.73 18.24 16.14 17.44C16.28 17.36 16.41 17.27 16.54 17.18C16.67 17.08 16.79 16.98 16.91 16.87C17.02 16.76 17.13 16.64 17.23 16.52C17.34 16.39 17.43 16.26 17.52 16.13C17.6 16.01 17.7 15.91 17.81 15.83C17.92 15.74 18.04 15.68 18.18 15.64C18.31 15.59 18.45 15.58 18.59 15.58C18.73 15.58 18.87 15.61 19 15.66L19 15.66C19.16 15.71 19.3 15.8 19.43 15.91C19.56 16.02 19.66 16.15 19.73 16.31C19.81 16.46 19.85 16.62 19.86 16.79C19.87 16.95 19.85 17.12 19.79 17.28C19.78 17.3 19.77 17.33 19.76 17.35C19.75 17.37 19.74 17.4 19.73 17.42C19.72 17.44 19.71 17.46 19.7 17.48C19.69 17.51 19.67 17.53 19.66 17.55C19.36 18 19.01 18.42 18.61 18.79C18.21 19.15 17.77 19.47 17.29 19.73C16.81 19.99 16.31 20.18 15.78 20.32C15.25 20.45 14.71 20.52 14.17 20.52L14.17 20.52Z" />
</svg>
